{
    "asset" : {
        "generator" : "Khronos glTF Blender I/O v1.1.46",
        "version" : "2.0"
    },
    "scene" : 0,
    "scenes" : [
        {
            "name" : "Scene",
            "nodes" : [
                3
            ]
        }
    ],
    "nodes" : [
        {
            "mesh" : 0,
            "name" : "node-0"
        },
        {
            "children" : [
                0
            ],
            "name" : "Node.002",
            "translation" : [
                0.037323858588933945,
                -0.057762280106544495,
                3.766362190246582
            ]
        },
        {
            "children" : [
                1
            ],
            "name" : "Node.001",
            "scale" : [
                0.30000001192092896,
                0.30000001192092896,
                0.30000001192092896
            ],
            "translation" : [
                -0.037323858588933945,
                0.057762280106544495,
                -3.766362190246582
            ]
        },
        {
            "children" : [
                2
            ],
            "name" : "Node",
            "rotation" : [
                0.7071068286895752,
                0,
                0,
                0.7071067094802856
            ]
        }
    ],
    "materials" : [
        {
            "doubleSided" : true,
            "emissiveFactor" : [
                0,
                0,
                0
            ],
            "name" : "Lion:blinn4SG",
            "pbrMetallicRoughness" : {
                "baseColorTexture" : {
                    "index" : 0,
                    "texCoord" : 0
                },
                "metallicFactor" : 0,
                "roughnessFactor" : 0.9998170137405396
            }
        }
    ],
    "meshes" : [
        {
            "name" : "buffer-0-mesh-0",
            "primitives" : [
                {
                    "attributes" : {
                        "POSITION" : 0,
                        "NORMAL" : 1,
                        "TEXCOORD_0" : 2
                    },
                    "indices" : 3,
                    "material" : 0
                }
            ]
        }
    ],
    "textures" : [
        {
            "source" : 0
        }
    ],
    "images" : [
        {
            "bufferView" : 4,
            "mimeType" : "image/png",
            "name" : "Lion_BaseColor"
        }
    ],
    "accessors" : [
        {
            "bufferView" : 0,
            "componentType" : 5126,
            "count" : 4050,
            "max" : [
                1.7011699676513672,
                5.522193908691406,
                0.00023200000578071922
            ],
            "min" : [
                -1.7018500566482544,
                -8.941640853881836,
                -6.762969970703125
            ],
            "type" : "VEC3"
        },
        {
            "bufferView" : 1,
            "componentType" : 5126,
            "count" : 4050,
            "type" : "VEC3"
        },
        {
            "bufferView" : 2,
            "componentType" : 5126,
            "count" : 4050,
            "type" : "VEC2"
        },
        {
            "bufferView" : 3,
            "componentType" : 5123,
            "count" : 4050,
            "type" : "SCALAR"
        }
    ],
    "bufferViews" : [
        {
            "buffer" : 0,
            "byteLength" : 48600,
            "byteOffset" : 0
        },
        {
            "buffer" : 0,
            "byteLength" : 48600,
            "byteOffset" : 48600
        },
        {
            "buffer" : 0,
            "byteLength" : 32400,
            "byteOffset" : 97200
        },
        {
            "buffer" : 0,
            "byteLength" : 8100,
            "byteOffset" : 129600
        },
        {
            "buffer" : 0,
            "byteLength" : 1906306,
            "byteOffset" : 137700
        }
    ],
    "buffers" : [
        {
            "byteLength" : 2044008,
            "uri" : "data:application/octet-stream;base64,"
        }
    ]
}
